<svg width="30" height="31" viewBox="0 0 30 31" fill="none" xmlns="http://www.w3.org/2000/svg">
<path id="Vector" d="M15.0033 7.40927C10.7468 7.40927 7.31344 10.8908 7.31344 15.2071C7.31344 19.5233 10.7468 23.0049 15.0033 23.0049C19.2599 23.0049 22.6933 19.5233 22.6933 15.2071C22.6933 10.8908 19.2599 7.40927 15.0033 7.40927ZM15.0033 20.2767C12.2526 20.2767 10.0039 18.0031 10.0039 15.2071C10.0039 12.411 12.246 10.1375 15.0033 10.1375C17.7607 10.1375 20.0028 12.411 20.0028 15.2071C20.0028 18.0031 17.754 20.2767 15.0033 20.2767ZM24.8014 7.0903C24.8014 8.1015 23.9983 8.90911 23.0078 8.90911C22.0106 8.90911 21.2142 8.09471 21.2142 7.0903C21.2142 6.08588 22.0173 5.27149 23.0078 5.27149C23.9983 5.27149 24.8014 6.08588 24.8014 7.0903ZM29.8946 8.93625C29.7808 6.49986 29.232 4.34173 27.4718 2.56364C25.7183 0.785548 23.5901 0.229048 21.1874 0.106889C18.7111 -0.0356296 11.2889 -0.0356296 8.8126 0.106889C6.41662 0.222261 4.28834 0.778762 2.52817 2.55685C0.767987 4.33494 0.225878 6.49308 0.10541 8.92947C-0.0351366 11.4405 -0.0351366 18.9668 0.10541 21.4779C0.219186 23.9143 0.767987 26.0724 2.52817 27.8505C4.28834 29.6286 6.40993 30.1851 8.8126 30.3072C11.2889 30.4498 18.7111 30.4498 21.1874 30.3072C23.5901 30.1919 25.7183 29.6354 27.4718 27.8505C29.2253 26.0724 29.7741 23.9143 29.8946 21.4779C30.0351 18.9668 30.0351 11.4473 29.8946 8.93625ZM26.6955 24.1722C26.1735 25.5023 25.1629 26.5271 23.8444 27.0633C21.8701 27.8573 17.1852 27.674 15.0033 27.674C12.8215 27.674 8.12995 27.8505 6.1623 27.0633C4.85053 26.5339 3.83993 25.5091 3.31121 24.1722C2.52817 22.1701 2.70887 17.4195 2.70887 15.2071C2.70887 12.9946 2.53486 8.23723 3.31121 6.24197C3.83324 4.9118 4.84384 3.88702 6.1623 3.35088C8.13664 2.55685 12.8215 2.74009 15.0033 2.74009C17.1852 2.74009 21.8767 2.56364 23.8444 3.35088C25.1562 3.88024 26.1668 4.90501 26.6955 6.24197C27.4785 8.24402 27.2978 12.9946 27.2978 15.2071C27.2978 17.4195 27.4785 22.1769 26.6955 24.1722Z" fill="black"/>
</svg>
