<svg width="30" height="31" viewBox="0 0 30 31" fill="none" xmlns="http://www.w3.org/2000/svg">
<path id="Vector" d="M26.9163 7.57974C26.9354 7.91238 26.9354 8.24509 26.9354 8.57773C26.9354 18.7237 20.7488 30.4141 9.44166 30.4141C5.95813 30.4141 2.7221 29.1547 0 26.9688C0.494943 27.0401 0.970785 27.0638 1.48477 27.0638C4.3591 27.0638 7.00509 25.8521 9.11804 23.7848C6.41499 23.7135 4.14974 21.5038 3.36927 18.4623C3.75001 18.5336 4.1307 18.5811 4.53049 18.5811C5.0825 18.5811 5.63457 18.486 6.1485 18.3198C3.33124 17.6069 1.21823 14.518 1.21823 10.7875V10.6925C2.03673 11.2628 2.98859 11.6192 3.9974 11.6666C2.3413 10.2885 1.25631 7.93615 1.25631 5.2749C1.25631 3.84926 1.56083 2.5424 2.09386 1.40187C5.12053 6.05903 9.67006 9.10039 14.7715 9.4331C14.6764 8.86283 14.6193 8.26887 14.6193 7.67483C14.6193 3.44531 17.3604 0 20.7678 0C22.5381 0 24.137 0.926678 25.2602 2.42363C26.6497 2.09099 27.9822 1.44941 29.1625 0.570269C28.7055 2.35239 27.7348 3.84933 26.4594 4.79971C27.6967 4.63346 28.896 4.20567 30 3.6117C29.1626 5.13235 28.1156 6.48667 26.9163 7.57974Z" fill="black"/>
</svg>
